<svg xmlns="http://www.w3.org/2000/svg" viewBox="0 0 24 24" fill="currentColor">
  <path d="M12 15a3 3 0 100-6 3 3 0 000 6z" />
  <path fill-rule="evenodd" d="M9.243 3.828a.75.75 0 01.76-.215 5.522 5.522 0 001.997.38c.67 0 1.315-.134 1.997-.38a.75.75 0 01.99.565l.273 1.866a.75.75 0 00.464.58 5.532 5.532 0 011.596.923.75.75 0 00.818.116l1.714-.857a.75.75 0 01.974.347l.873 1.728a.75.75 0 01-.182.934l-1.41 1.223a.75.75 0 00-.249.72 5.458 5.458 0 010 1.846.75.75 0 00.249.72l1.41 1.223a.75.75 0 01.182.934l-.873 1.728a.75.75 0 01-.974.347l-1.714-.857a.75.75 0 00-.818.116 5.508 5.508 0 01-1.596.923.75.75 0 00-.464.58l-.273 1.866a.75.75 0 01-.99.565 5.522 5.522 0 01-1.997-.38 5.522 5.522 0 01-1.997.38.75.75 0 01-.99-.565l-.273-1.866a.75.75 0 00-.464-.58 5.508 5.508 0 01-1.596-.923.75.75 0 00-.818-.116l-1.714.857a.75.75 0 01-.974-.347l-.873-1.728a.75.75 0 01.182-.934l1.41-1.223a.75.75 0 00.249-.72 5.458 5.458 0 010-1.846.75.75 0 00-.249-.72L2.2 9.566a.75.75 0 01-.182-.934l.873-1.728a.75.75 0 01.974-.347l1.714.857a.75.75 0 00.818-.116 5.532 5.532 0 011.596-.923.75.75 0 00.464-.58l.273-1.866z" clip-rule="evenodd" />
</svg>
